# xmcd
#
# Track frame offsets:
#	150
#	20662
#	39493
#	56538
#	74990
#	95089
#	112270
#	122990
#	140867
#	153549
#	173724
#	191350
#	210356
#
# Disc length: 3151 seconds
#
# Revision: 0
# Processed by: cddbd v1.5.2PL0 Copyright (c) Steve Scherf et al.
# Submitted via: EasyCDDAExtractor 2010.4.0.0
#
DISCID=ca0c4d0d
DTITLE=Jesse Legè and Edward Poullard and the All Star Cajun Band - Live! At the
DTITLE=Isleton Crawdad Festival
DYEAR=2002
DGENRE=Cajun
TTITLE0=Quo faire (Why)
TTITLE1=Tolan waltz
TTITLE2=New Crowley two step
TTITLE3=Ma femme et mes enfants (My wife and my children)
TTITLE4=Won't be satisfied
TTITLE5=Vals de la belle
TTITLE6=Misery two step
TTITLE7=KLFY waltz
TTITLE8=Fe Fe Poncho
TTITLE9=Viens me chercher (Come and get me)
TTITLE10=Waltz of no return
TTITLE11=Saturday night special
TTITLE12=Zydeco sont pas salé
EXTD=
EXTT0=
EXTT1=
EXTT2=
EXTT3=
EXTT4=
EXTT5=
EXTT6=
EXTT7=
EXTT8=
EXTT9=
EXTT10=
EXTT11=
EXTT12=
PLAYORDER=
